<?xml version="1.0" encoding="utf-8"?>
<!-- Generator: Adobe Illustrator 26.5.0, SVG Export Plug-In . SVG Version: 6.00 Build 0)  -->
<svg version="1.1" xmlns="http://www.w3.org/2000/svg" xmlns:xlink="http://www.w3.org/1999/xlink" x="0px" y="0px"
	 viewBox="0 0 527.43 549.45" style="enable-background:new 0 0 527.43 549.45;" xml:space="preserve">
<style type="text/css">
	.st0{fill:#D3AC8E;}
	.st1{fill:#DCB597;}
	.st2{fill:#CC9571;}
	.st3{fill:#A5836C;}
	.st4{fill:#C6A37A;}
	.st5{fill:#E5BD9D;}
	.st6{fill:#AC8971;}
	.st7{opacity:0.35;fill:#A5836C;}
</style>
<g id="Camada_1">
	<circle class="st0" cx="267.66" cy="284.13" r="190.45"/>
	<path class="st1" d="M87.75,221.18c0,0,156.32,77.89,367.81,32.49s0,0,0,0s24.14,103.64-71.55,181.24c0,0-94.29,28.68-242.97-8.53
		C141.04,426.38,46.4,350.11,87.75,221.18S87.75,221.18,87.75,221.18L87.75,221.18"/>
	<path class="st2" d="M79.03,259.52c0,0,41.7,60.83,377.99,45.15c0,0-2.03,17.71-5.06,26.55c0,0-280.38,16.14-374.74-43.46
		C77.21,287.76,77.66,262.95,79.03,259.52z"/>
	<path class="st2" d="M78.31,304.67c0,0,58.99,37.78,368.36,44.58c0,0-4.64,12.59-5.15,12.7c0,0-112.32-4.66-137.46-6.99
		c-1.72-0.16-3.4,0.54-4.48,1.89c-3.96,4.95-13.92,16.8-20.64,19.62l-44.86-7.68c-2.43-0.42-4.9,0.48-6.49,2.37
		c-3.93,4.67-11.65,13.26-16.81,15.24c-7.17,2.76-114.71-19.56-114.71-19.56S81.33,335.94,78.31,304.67z"/>
	<path class="st3" d="M112.76,394.72c0,0,136.37,22.59,184.94,18.45l121.19-13.76c0,0-19.49,22.93-29.19,30.72
		c0,0-120.11,5.11-264.73-19.86C124.98,410.28,115.88,399.25,112.76,394.72z"/>
</g>
<g id="Camada_2">
	<path class="st4" d="M84.7,231.06c0,0,46.88,68.7,166.08,50.76c119.21-17.94,81.96,6.26,139.08,2.3
		c57.12-3.96,67.35-18.64,67.35-18.64s-2.57-24.48-9.11-42.45l-190.14-22.4L102.62,189.3C102.62,189.3,89.91,210.69,84.7,231.06z"/>
	<path class="st5" d="M265.82,228.32c0,0,130.14,14.59,182.28-5.28c0,0-4.06-12.97-12.52-28.69l-69.17-9.11L265.82,228.32z"/>
	<g id="XMLID_00000098183394335657687400000011718307416547004596_">
		<g>
			<path class="st6" d="M413.61,162.06c0,0,12.94,15.79,21.97,32.28c0,0-30.4,30.66-71.74,22.81s-106.22,13.67-106.22,13.67
				s-92.57,22.34-120.45-5.82c-27.32-27.61-40.71-23.72-41.1-23.6c0.32-0.7,11.3-23.02,25.01-38.42
				C121.09,162.97,235.4,202.22,413.61,162.06z"/>
		</g>
		<g>
		</g>
	</g>
	<path class="st5" d="M156.62,129.55c0,0,40.26,45.1,220.64-1.22c0,0,24.58,17.76,36.06,33.57c0,0-159.36,40.8-292.23,0.8
		C121.09,162.7,134.55,145.23,156.62,129.55z"/>
</g>
<g id="Camada_3">
	<path class="st7" d="M327.46,435.82c-105.18,0-190.45-85.27-190.45-190.45c0-54.07,22.54-102.88,58.73-137.55
		c-69.42,28.43-118.33,96.65-118.33,176.31c0,105.18,85.27,190.45,190.45,190.45c51.11,0,97.41-20.22,131.62-52.99
		C377.23,430.7,352.99,435.82,327.46,435.82z"/>
</g>
</svg>
