<?xml version="1.0" encoding="utf-8"?>
<!-- Generator: Adobe Illustrator 26.5.0, SVG Export Plug-In . SVG Version: 6.00 Build 0)  -->
<svg version="1.1" id="Camada_1" xmlns="http://www.w3.org/2000/svg" xmlns:xlink="http://www.w3.org/1999/xlink" x="0px" y="0px"
	 viewBox="0 0 595.28 841.89" style="enable-background:new 0 0 595.28 841.89;" xml:space="preserve">
<style type="text/css">
	.st0{fill:#9547ED;}
	.st1{fill:#491485;}
</style>
<path class="st0" d="M426.98,212.54l-19.72-27.59l-5.69-15.51l-23.36-24.63l-35.25-10.12L308.46,138l-18.88,13.84l-18.23,21.77
	l-7.92,26.61l-5.24,7l-18.66,9.27c0,0-17.67,22.23-13.99,27.58c3.67,5.35-7.07,25.33,40.37,47.2l-2.48,23.31
	c0,0-15.83,2.8-3.96,17.24c0,0-33.41,36.42-40.02,44.78l-12.84,20.23l-3.45,29.03l2.36,13.05l-45.02,0.82L135,444.09l-40.46,6.84
	l-31.67,11.44l-17.59,9.99l2.2,15.57l69.05,72.52l56.74,31.23l46.19,16.12l37.84,8.84l57.2,7.02l50.66,4.09l-4.62,5.19l7.94,4.04
	l35.55,20.99l31.31,7.16l9.57-10.22l12.41,3.06l4.91-3.06l11.44,10.22l21.11-4.37l21.11-2.8l-16.27-11.94l-11.44-6.74l-7.43-5.2
	l-10.48-6.78l-7.81-5.37l-7.7-5.3l2.56,12.87l6.98-18.22l11.73-7.29l9.42,7.29l30.45,7.23l16.27-1.87c0,0,0.44-6.8,0-8.84
	s-8.6-6.88-8.6-6.88s-7.23-9.24-10.75-12.32s-6.41-4.9-8.48-5.97c-2.07-1.07-7.67-5.29-9.71-4.5s-6.88,0.34-6.88,0.34l-4.28,2.21
	l5.16-6.09l-5.16-3.48l-7.44-2.74l-2.36-11.16h7.08c0,0-9.45,0.45,2.71,0c12.16-0.45,15.71,5.01,15.71,5.01s16.71,0.44,18.03,0.44
	s11.44,0,11.44,0l3.71-10.41c0,0-5.52-11.29-8.8-13.42c-3.28-2.13-14.87-5.56-14.87-5.56s-1.86-1.55-6.13-2.13
	c-4.27-0.59-7.35-2.35-10.43-3.01c-3.08-0.66-8.68-2.86-8.68-2.86l-5.18-11.22l-8.02-10.98l-15.08-2l-23.53-5.28l-20.89,2.2
	l-15.39,3.74l-9.68-3.3l-4.84-5.72l9.74-7.39l0.6-16.8l6.25-22.02l1.11-28.34l2.57-23.97l11.6-0.66l9.91-11.66l4.84-15.83
	c0,0-0.44-20.89-0.66-21.77s-2.54-20.01-2.48-21.11s0-15.05,0-15.05l16.8-7.38l18.66-3.08l20.23-7.92l9.68-8.8l-0.88-9.02
	l-10.34-9.06l-20.67-5.01l-20.23-1.54l-14.73,1.32c0,0-11.44,0-12.1,0s-4.62-0.88-4.62-0.88l1.32-6.16l5.27-2.42l5.29-2.34l7.7-9.53
	l2.86-9.9l-0.22-12.32L426.98,212.54z"/>
<path class="st1" d="M407.44,254.96c15.85-0.6,30.6-1.53,45.34-0.38c9.02,0.71,17.93,2.01,26.16,6.11
	c14.68,7.32,16.02,21.89,3.03,31.87c-5.12,3.93-11.15,5.48-17.23,6.77c-10.89,2.31-21.79,4.59-32.78,6.32
	c-4.19,0.66-5.27,2.05-4.96,6.15c1.13,15.21,1.84,30.45,2.82,45.67c0.96,14.94-3.19,27.58-15.95,36.48
	c-1.05,0.74-2.12,1.84-3.27,1.99c-8.67,1.12-8.62,7.25-9.03,13.99c-1.31,21.22-2.99,42.42-7.7,63.24
	c-1.34,5.91-3.52,11.45-6.21,16.87c-0.89,1.8-4.19,3.75-1.74,5.85c2.39,2.05,4.98,4.57,9.17,3.08c12.33-4.4,25.19-4.99,38.15-4.6
	c10.85,0.32,21.25,2.78,31.37,6.54c6.16,2.28,11.8,5.44,14.87,11.6c1.35,2.72,3.6,2.59,5.9,2.91c5.1,0.72,9.22,2.73,9.53,8.6
	c0.16,2.97,1.73,2.99,3.85,2.54c8.48-1.79,15.53,1.28,22.17,6.22c8.29,6.17,15.96,13.05,23.63,19.95c2.59,2.33,4.19,4.98,2.83,8.52
	c-1.28,3.32-4.17,3.88-7.35,4.11c-9.64,0.69-19.25,1.7-28.89,2.26c-8.13,0.47-15.9-0.8-22.13-6.76c-1.66-1.59-2.88-2.4-4.2,0.46
	c-1.12,2.43-3.64,3.45-7.01,4.88c7.55,0.44,12.53,2.76,12.69,10.44c0.05,2.45,2.1,1.76,3.39,1.48c9.76-2.11,17.53,1.96,24.97,7.58
	c8.58,6.49,16.61,13.62,24.61,20.79c2.45,2.2,3.6,4.75,2.81,8.03c-0.65,2.67-2.64,4.03-5.1,4.27c-13.88,1.33-27.72,3.42-41.73,2.51
	c-7.24-0.47-13.15-3.6-18.32-9.43c-3.03,5.75-7.38,8.74-13.64,6.65c0.26,7.3,3.41,9.91,10.63,8.53c4.69-0.9,9.19,1.59,13.21,4.26
	c10.06,6.7,18.86,14.92,27.76,23c2.24,2.03,3.31,4.55,2.21,7.54c-0.99,2.7-3.11,3.78-5.95,4.13c-12.38,1.51-24.78,2.74-37.27,2.25
	c-6.74-0.26-12.36-3.28-17.45-8.69c-3.7,7.3-9.16,7.63-15.47,4.32c-1.55-0.81-3.21-1.45-4.93-0.67
	c-12.73,5.72-25.04,1.68-36.97-2.33c-16.71-5.62-31.4-14.92-43.46-27.93c-2.41-2.6-4.95-2.98-8-2.97
	c-36.65,0.13-72.84-4.09-108.59-11.97c-70.63-15.56-131.87-48.37-182.56-100.27c-7.22-7.39-13.8-15.33-19.26-24.15
	c-7.99-12.9-6.59-19.81,6.35-27.55c17.91-10.73,37.62-16.66,57.98-20.56c30.68-5.87,61.56-9.34,92.87-6.95
	c3.05,0.23,3.59-0.72,2.97-3.69c-7.23-34.2,7.5-59.58,32.97-80.28c6.35-5.16,13.12-9.69,17.86-16.53c2.01-2.9,3.49-5.25,0.87-9.12
	c-3.48-5.14-1.65-11.57,3.81-14.31c3.29-1.65,3.57-3.86,4.37-6.91c2.86-10.95,0.04-18.11-11.27-22.01
	c-5.37-1.85-9.64-6.27-14.01-10.14c-24.64-21.8-14.12-55.92,12.91-66.97c4.89-2,6.54-4.41,7.36-9.55c6.38-40.11,43.55-68.8,84-67.41
	c33.29,1.15,64.88,24.23,74.92,57.76c0.62,2.08,1.4,3.85,3.07,5.45c19.97,19.14,15.68,45.9-9.23,58.15
	C408.82,253.08,408.62,253.52,407.44,254.96z M178.96,444.24c-11.15-0.36-22.29-0.26-33.44,0.73c-4.28,0.38-6.41,1.7-8.27,5.38
	c-13.34,26.33-21.45,54.16-24.09,83.53c-1.8,20-1.62,20.01,15.3,31.26c1.25,0.83,2.49,1.68,3.77,2.47
	c51.6,32.09,108.57,47.45,168.35,54.19c4.36,0.49,5.35-1.16,5.76-5.21c2.46-24.75,5.02-49.49,11.73-73.57
	c5.54-19.88,13.7-38.77,21.63-57.74c1.17-2.79,2.86-5.37-1.62-7.16c-31.5-12.61-63.39-23.87-97.09-29.18
	c-2.79-0.44-5.01,0.24-7.36,1.39c-8.83,4.35-17.12,3.22-24.59-3c-2.48-2.06-5.05-3.1-8.18-3.09
	C193.55,444.25,186.25,444.24,178.96,444.24z M346.98,488.48c-21.79,41-31.14,84.87-33.22,130.6c-0.18,3.88,2.09,3.9,4.86,4.14
	c26.05,2.24,51.89,0.69,77.54-4.15c6.6-1.24,13.28-2.5,20.11-6.05c-6.42-3.44-12.14-6.24-17.61-9.47
	c-10.79-6.38-20.68-13.97-28.1-24.2c-8.4-11.57-5.86-21.61,6.68-28.09c7.74-4,16.12-5.65,24.69-6.64
	c11.58-1.34,23.18-1.51,35.03-0.34c-0.32-1.1-0.32-1.59-0.56-1.88c-14.7-17.84-33.08-31.03-53.19-42.04
	c-1.37-0.75-2.78-1.25-4.3-0.72C365.35,504.4,355.12,499.47,346.98,488.48z M396.66,384.67c0-7.3-0.1-14.6,0.04-21.9
	c0.09-4.32-1.5-5.64-5.81-4.63c-7.4,1.73-15.12,1.73-22.41,0.37c-6.64-1.23-9.04-0.03-10,6.86c-1.24,8.96-5.59,11.83-13.68,10.44
	c-22.37-3.86-44.73-7.8-67.07-11.85c-6.95-1.26-10.82-7.34-9.64-14.32c0.39-2.31,0.64-4.64,0.97-6.97c0.32-2.32,2.37-5.06-1.85-6.11
	c-3.19-0.79-5.83-1.81-8.19,2.14c-4.81,8.05-11.98,13.93-19.58,19.3c-7.05,4.99-13.19,10.94-18.59,17.71
	c-2.71,3.4-3.59,5.06,1.75,6.81c14,4.58,25.7,12.89,34.62,24.65c2.63,3.46,4,3.73,7.28,0.89c7.97-6.9,16.88-12.22,28.04-10.37
	c10.63,1.76,20.91,4.97,30.6,9.71c9.02,4.41,17.85,9.61,19.38,20.71c0.94,6.86,3.72,7.8,9.9,6.44c12.16-2.69,24.48-3.09,35.59,3.73
	c4.56,2.8,5.24,1.22,5.65-2.86C395.35,418.54,397.01,401.66,396.66,384.67z M267.39,303.7c0.02,0,0.03,0,0.05,0
	c-0.18,1.92-0.16,3.9-0.59,5.76c-0.82,3.5,1.19,4.41,3.96,5.22c3.18,0.92,3.91-0.51,4.78-3.27c2.25-7.07,6.23-9.4,13.81-8
	c21.47,3.95,43.16,6.8,64.31,12.45c9.99,2.67,12.26,5.61,10.83,15.89c-0.3,2.13-1.07,4.69,2.06,5.1c8.26,1.08,16.48,2.74,24.89,0.33
	c3.18-0.91,4.19-2.26,4.02-5.3c-0.34-6.22-0.04-12.52-0.91-18.66c-0.86-6.13,1.77-7.88,7.21-8.61c11.27-1.52,22.45-3.68,33.71-5.32
	c4.39-0.64,5.41-2.37,4.63-6.8c-1.59-9.08-2.64-18.26-3.46-27.45c-0.35-3.88-1.77-5.35-5.56-5.11c-7.28,0.47-14.57,0.86-21.87,1.12
	c-4.13,0.15-7.08,1.77-9.82,5.03c-16.86,20.03-39.29,29.3-64.72,29.18c-24.21-0.11-44.88-10.29-60.72-29.13
	c-1.97-2.34-3.4-4.91-7.25-3.72c-1.75,0.54-3.48-0.45-3.8-2.52c-0.31-2.02,1.09-3.32,2.75-3.88c2.83-0.95,5.81-1.47,8.69-2.32
	c1.41-0.42,3.8-0.09,2.56-3.04c-5.37-12.73-5.14-25.93-3-39.25c0.45-2.82-0.71-3.21-3.24-2.77c-7.21,1.24-14.39,2.61-21.04,5.76
	c-14.89,7.04-23.82,22.26-20.89,37.04c3.48,17.57,17.53,25.54,31.83,32.99c1.92,1,2.74,0.18,2.99-1.74
	c0.23-1.71,0.38-3.78,2.81-3.45c2.6,0.36,2.5,2.63,2.38,4.54C268.38,290.44,267.86,297.07,267.39,303.7z M243.9,443.66
	c34.06,7.17,66.32,16.89,98.31,30.61c-2.38-13.52-2.81-25.92-3.76-38.28c-0.78-10.1-5.4-17.19-14.67-21.66
	c-7.58-3.65-15.46-6.33-23.36-9.09c-11.79-4.12-21.71-0.82-31.01,6.82C258.93,420.68,252.8,432.62,243.9,443.66z M420.75,607.75
	c1.29-19.44,4.95-37.4,14.09-53.88c1.56-2.81,0.5-3.93-2.39-4.08c-4.29-0.23-8.57-0.72-12.86-0.69c-13.77,0.11-27.54,0.59-40.2,6.95
	c-8.95,4.49-10.87,10.72-5.07,18.89C385.79,591.09,402.43,600.12,420.75,607.75z M224.96,446.46c4.45-0.47,9.6-3.21,14.03-7.56
	c6.17-6.08,9.98-13.9,15.32-20.58c1.94-2.42,0.18-3.93-0.88-5.63c-8.27-13.19-20.75-20.66-35.07-25.57
	c-1.79-0.61-3.73-1.53-4.92,1.05c-6.67,14.44-11.61,29.17-6.61,45.25C209.47,441.93,215.37,446.38,224.96,446.46z M365.06,438.8
	c-5.06-0.17-10.43,1.33-15.88,2.55c-3.54,0.79-4.49,2.63-4.09,5.92c1,8.08,1.57,16.22,2.93,24.24c0.97,5.69,3.05,11.14,6.65,15.88
	c8.48,11.17,21.55,10.24,28.04-2.01c4.51-8.51,6.14-17.77,7.38-27.15c1.46-11.07-1.35-15.22-12.35-18.09
	C373.79,439.1,369.76,438.55,365.06,438.8z M445.67,612.97c10,0.09,12.79-2.02,15.45-11.57c2.53-9.08,4.92-18.2,7.72-27.2
	c1.88-6.05-0.33-10.46-4.7-14.16c-4.88-4.15-11.09-5.38-16.97-7.35c-3.87-1.3-5.87,0.05-7.61,3.45c-6,11.76-10.14,24.08-11.64,37.2
	C426.08,609.56,429.12,612.83,445.67,612.97z M292.1,251.63c10.64-0.18,20.17-1.79,28.18-8.71c9.56-8.28,10.11-16.27,1.01-25.06
	c-10.66-10.32-24.19-10.89-37.88-10.64c-2.05,0.04-2.93,1.35-3.29,3.28c-2.15,11.5-3,22.84,1.27,34.19
	C283.5,250.33,286.24,253.68,292.1,251.63z M347.63,326.7c0.2-6.11-2.87-7.58-6.42-8.27c-12.42-2.4-24.88-4.62-37.31-6.98
	c-2.39-0.46-3.63,0.19-4.01,2.69c-0.89,5.94-1.93,11.85-2.84,17.78c-0.38,2.5-0.05,5.1,2.78,5.76c6.88,1.61,7.17,6.35,6.26,11.92
	c-0.48,2.96-0.68,5.97-1.24,8.92c-0.51,2.69,0.32,3.84,3.11,4.31c8.67,1.45,17.3,3.2,25.95,4.76c2.93,0.53,5.22-0.57,5.87-3.6
	C342.57,351.05,345.24,338.08,347.63,326.7z M402.63,372.55c0.11,0,0.23,0,0.34,0c0,4.5-0.02,9,0.01,13.5
	c0.04,6.08,0.62,6.44,5.99,3.19c9.63-5.82,14.22-14.69,14.56-25.68c0.53-17.39-1.86-34.68-2.43-52.03c-0.05-1.65,0.11-3.8-2.56-3.43
	c-5.7,0.8-12.19,0.13-16.75,3.41c-3.12,2.24,0.01,7.64-0.3,11.63c-0.15,1.91,0.21,3.86,0.11,5.79c-0.18,3.81,0.52,6.63,4.3,9
	c5.01,3.14,5.4,10.87,0.66,14.38c-3.83,2.83-4.1,6.02-3.96,9.95C402.73,365.69,402.63,369.12,402.63,372.55z M409.51,650.15
	c0.64,2.36-1.7,6.42,2.29,7.52c6.76,1.86,13.64,4.03,20.82,2.58c4.2-0.84,7.28-2.82,8.4-7.61c2.29-9.77,5.07-19.43,7.76-29.11
	c0.72-2.58,0.48-3.91-2.63-4.27c-5.3-0.61-10.55-1.73-15.84-2.51c-7.36-1.09-14.86,3.9-16.86,11.02
	C411.42,634.99,409.9,642.3,409.51,650.15z M475.28,520.7c-0.07-4.56-1.33-7.2-3.6-9.37c-4.86-4.65-11.19-6.11-17.32-8.04
	c-3.16-0.99-4.97-0.2-6.61,2.92c-4.22,8.03-7.32,16.42-9.59,25.16c-0.83,3.18,0.23,5.46,1.92,8.26c5.44,9.03,15.83,8.66,23.56,13.23
	c1.48,0.88,2.45,0.2,2.88-1.29C469.56,540.87,472.6,530.15,475.28,520.7z M451.39,260.66c-1.92-0.17-3.83-0.35-5.75-0.52
	c-2.51-0.23-3.44,0.83-3.19,3.4c0.97,10.02,1.92,20.03,4.48,29.81c0.47,1.78,0.93,3.65,3.19,3.08c9.49-2.38,19.7-2.63,27.99-8.68
	c9.45-6.9,8.64-16.48-1.79-21.72C468.51,262.12,459.97,261.19,451.39,260.66z M273.85,351.33c-0.07,3.37,1.53,5.38,4.7,6.05
	c3.35,0.72,6.75,1.21,10.11,1.88c12.26,2.43,12.27,2.45,14.78-9.73c0.26-1.25,0.32-2.55,0.36-3.83c0.06-1.9-0.74-3.59-2.57-4.02
	c-7.55-1.8-7.37-7.23-6.38-13.09c0.67-4.01,1.54-7.99,2.05-12.02c0.33-2.66,2.29-6.39-2.82-6.77c-4.67-0.35-11.12-4.62-12.97,3.12
	C278.05,325.58,276.2,338.52,273.85,351.33z M307.66,144.02c2.56,1.43,4.36,0.37,6.16,0.25c2.14-0.14,4.27-0.6,6.4-0.55
	c33.95,0.84,60.47,14.39,76.23,45.48c3.18,6.26,7.18,2.07,10.19,1.42c3.55-0.76,0.59-4.05-0.13-5.72
	c-10.26-23.82-28.06-39.03-53.29-44.97C337.93,136.33,322.81,137.61,307.66,144.02z M426.22,221.39c0.08-3.09-0.32-6.67-1.88-10.08
	c-2-4.39-5.02-7.81-9.99-8.05c-4.7-0.22-7.94,2.79-10.25,6.71c-5.4,9.13-5.2,18.5-0.48,27.67c4.15,8.06,12.11,8.52,17.59,1.32
	C424.99,233.96,426.37,228.17,426.22,221.39z M331.14,162.51c-6.48-1.75-11.15-2.18-15.9-1.99c-25.95,1.03-41.15,12.4-45.76,34.31
	c-0.51,2.44-2.02,5.61,0.14,7.27c2.22,1.7,5.34-0.22,8.05-0.61c2.24-0.32,2.75-2.6,3.58-4.24c7.86-15.46,20.78-24.78,36.72-30.45
	C321.75,165.47,325.58,164.32,331.14,162.51z M364.41,630.27c11.19,11.22,23.02,18.68,36.24,24.11c3.03,1.24,3.72-0.05,3.77-2.79
	c0.14-8.38,0.86-16.71,3.11-24.83c0.76-2.75-0.09-3.67-2.82-2.9C392.05,627.43,378.95,628.31,364.41,630.27z M397.82,503.53
	c12.83,8.68,24.11,17.14,35.12,27.56c2.29-11.18,6.6-20.44,11.22-29.98C428.53,498.22,413.86,499.32,397.82,503.53z M498.59,611.24
	c5.18-0.93,12.92-2.44,20.7-3.67c5.05-0.8,3.94-2.72,1.16-5.06c-5.22-4.4-10.28-9.03-15.79-13.04c-10.71-7.79-16.03-5.72-19.6,7.17
	C482.54,605.81,486.56,611.22,498.59,611.24z M501.82,653.99c-7.96-7.24-14.59-13.86-22.91-18.34c-6.35-3.43-11.23-1.3-13.44,5.5
	c-0.59,1.82-1.12,3.67-1.54,5.54c-1.43,6.44,1.91,10.89,8.63,11.18C482.01,658.28,491.13,656.22,501.82,653.99z M526.13,552.77
	c-7.38-7.39-14.19-13.83-22.45-18.39c-4.97-2.74-9.79-0.43-11.86,4.91c-3.54,9.15-2.47,15.34,3.05,17.42
	c0.78,0.3,1.68,0.39,2.52,0.42C506.87,557.43,515.96,555.39,526.13,552.77z M49.1,472.31c24.81-7.33,49.76-13.46,75.2-17.53
	c4.46-0.71,4.83-3.92,6.08-7.74C101.36,450.94,73.77,457.03,49.1,472.31z M377.44,352.79c7.82,0.37,15.43-0.79,22.8-3.35
	c2.27-0.79,4.56-2.27,3.64-5.17c-0.86-2.73-3.31-3.02-5.85-2.5c-2.73,0.55-5.43,1.3-8.19,1.59c-8.15,0.85-16.27,0.58-24.34-1.05
	c-3.24-0.65-6.98-1.08-7.94,3.12c-0.96,4.23,2.49,5.27,5.82,6.07C368.01,352.62,372.72,352.7,377.44,352.79z M377.45,207.69
	c0.12-6.49-3.99-11.35-9.66-11.42c-5.69-0.07-10.39,5.12-10.52,11.62c-0.12,6.32,4.22,11.46,9.73,11.5
	C372.64,219.45,377.34,214.19,377.45,207.69z M282.47,162.57c20.78-12.14,41.62-15.15,63.38-8.04
	c21.82,7.13,37.39,21.46,46.73,43.79c1.89-13.33-20.36-36.53-41.11-44.56C326.9,144.26,292.44,148.07,282.47,162.57z M412.73,198.43
	c-10.56-3.23-19.05,2.7-22.47,14.92c-4.18,14.9,1.61,29.71,12.67,32.42C388.59,228.78,396.44,202.44,412.73,198.43z M360.39,328.05
	c0.1-3.29-1.09-5.95-4.3-6.34c-3.81-0.46-2,2.93-2.33,4.62c-2.54,13.21-4.97,26.43-7.32,39.68c-0.24,1.33-2.48,3.25,0.48,4.18
	c2.06,0.65,4.46-0.07,4.9-1.97c1.3-5.53,5.07-10.85,1.29-16.98c-2.54-4.12-1.84-8.97,2-11.58
	C359.68,336.55,359.27,332.07,360.39,328.05z M390.74,246.74c-13.94,25.56-35.85,38.32-65.29,40.45
	C351.46,291.05,385.53,269.98,390.74,246.74z M268.33,330.76c4.85,0.25,4.58-3.91,4.52-6.55c-0.17-6.41-6.31-4.1-9.72-5.46
	c-2.83-1.12-5.31,0.93-5.66,4.4C257.03,327.48,260.91,330.19,268.33,330.76z M379.86,274.13c8.02-4.64,14.11-11.21,19.21-18.78
	c0.83-1.24,1.88-2.5-0.38-3.52c-1.81-0.82-2.66-0.09-3.48,1.47C391.14,260.99,385.88,267.83,379.86,274.13z M370.74,232.54
	c-0.15-2.4-1.19-4.17-3.85-4.16c-2.96,0.01-4.15,2.04-4.13,4.68c0.02,2.36,1.12,4.35,3.77,4.27
	C369.35,237.25,370.56,235.27,370.74,232.54z M479.13,571.58c-1.25,0.2-3.86-0.69-3.61,1.76c0.4,3.94,4.77,2.18,6.97,3.83
	c1.19,0.89,1.95-0.13,2-1.3C484.64,572.31,481.94,572.06,479.13,571.58z"/>
<path class="st1" d="M208.07,474.73c27.37,0.01,48.7,21.7,48.48,49.3c-0.21,25.78-22.12,47.22-48.08,47.04
	c-26.92-0.19-48.46-21.4-48.71-47.96C159.52,496.95,181.72,474.71,208.07,474.73z M235.42,522.99c0.01-15.15-11.9-27.31-26.7-27.24
	c-15.03,0.07-27.08,12.16-27,27.08c0.08,14.99,12.12,26.85,27.2,26.79C223.78,549.57,235.41,537.88,235.42,522.99z M177.92,495.25
	c20.02-14.67,40.23-15.27,60.85-1.08C225.24,476.24,191.97,475.29,177.92,495.25z"/>
<path class="st1" d="M341.11,342.81c-0.26,6.48-4.32,10.19-10.78,9.85c-6.69-0.35-11.11-4.87-10.73-10.97
	c0.37-5.96,4.31-10.05,9.57-9.92C337.15,331.96,341.39,335.88,341.11,342.81z M331.81,340.84c-0.16-2.47-0.54-5.07-3.66-4.86
	c-3.3,0.23-4.54,3.01-4.64,5.85c-0.08,2.31,0.73,5.13,3.68,4.9C330.35,346.48,331.51,343.77,331.81,340.84z"/>
<path class="st1" d="M186.95,532.2c12.16,7.84,24.52,9.18,37.83,6.4C216.26,549.86,193.28,546.56,186.95,532.2z"/>
</svg>
