<svg id="svg" version="1.1" xmlns="http://www.w3.org/2000/svg" xmlns:xlink="http://www.w3.org/1999/xlink" width="1600" height="1200" viewBox="0, 0, 400,300"><g id="svgg"><path id="path0" d="M213.953 46.085 C 213.541 46.155,212.198 46.362,210.969 46.544 C 197.858 48.483,187.409 59.089,185.026 72.877 L 184.696 74.785 182.893 75.438 C 176.503 77.752,171.943 84.013,171.943 90.473 C 171.943 97.091,176.506 102.781,185.397 107.253 L 187.599 108.361 187.433 109.769 C 187.342 110.544,187.182 112.283,187.077 113.634 C 186.899 115.948,186.841 116.107,186.092 116.371 C 183.469 117.295,182.549 120.647,184.259 123.049 L 184.878 123.918 183.690 125.650 C 182.212 127.804,180.169 129.769,177.681 131.430 C 166.775 138.710,160.206 154.387,163.974 164.141 C 164.127 164.535,163.277 164.579,157.168 164.491 C 144.679 164.311,129.922 166.058,120.630 168.815 C 106.302 173.066,100.225 176.622,100.225 180.754 C 100.225 186.237,111.771 199.407,125.431 209.505 C 147.835 226.066,171.094 234.498,204.351 238.118 C 206.744 238.378,212.180 238.673,216.431 238.772 L 224.160 238.953 225.227 240.255 C 231.435 247.831,248.053 254.570,254.831 252.260 L 256.849 251.572 258.558 252.268 C 260.776 253.170,263.446 252.776,263.470 251.542 C 263.491 250.537,264.056 250.559,265.442 251.617 C 268.531 253.975,271.006 254.174,283.516 253.071 C 286.383 252.818,287.582 252.069,287.717 250.449 C 287.829 249.095,287.751 248.994,283.914 245.565 C 276.738 239.150,273.977 237.569,270.200 237.713 L 267.666 237.809 267.657 236.909 C 267.652 236.414,267.450 235.747,267.207 235.427 C 266.542 234.547,266.633 234.476,268.385 234.493 C 270.137 234.510,271.091 233.950,271.607 232.602 L 271.877 231.896 273.011 232.920 C 275.926 235.554,279.685 236.057,289.722 235.155 C 300.533 234.184,300.368 232.576,288.483 223.075 C 283.617 219.185,282.346 218.605,278.695 218.605 L 275.769 218.605 275.769 217.751 C 275.769 216.493,274.911 215.258,273.692 214.760 C 270.953 213.641,271.050 213.696,271.771 213.674 C 272.142 213.662,272.816 213.178,273.329 212.556 L 274.233 211.459 275.361 212.450 C 277.651 214.460,278.642 214.709,284.171 214.659 C 297.309 214.541,300.674 212.787,296.104 208.439 C 288.294 201.007,282.633 197.675,279.317 198.560 C 277.742 198.980,277.569 198.884,277.569 197.582 C 277.569 195.898,275.563 194.449,273.232 194.449 C 272.338 194.449,272.066 194.276,271.464 193.323 C 267.507 187.067,248.691 183.971,239.066 187.993 C 238.012 188.433,237.937 188.420,236.544 187.536 C 234.827 186.447,234.850 186.718,236.239 183.946 C 238.042 180.349,239.267 175.283,240.050 168.192 C 240.232 166.542,240.506 164.246,240.657 163.091 C 240.809 161.935,241.086 158.560,241.274 155.589 C 241.667 149.351,241.618 149.509,243.317 148.935 C 247.550 147.504,251.179 143.013,252.052 138.127 C 252.306 136.702,252.274 134.467,251.912 128.525 C 251.653 124.265,251.359 119.269,251.258 117.421 L 251.075 114.062 251.794 113.912 C 252.190 113.830,253.728 113.550,255.214 113.291 C 263.594 111.826,269.332 110.408,271.113 109.363 C 278.095 105.265,277.019 97.795,269.071 95.186 C 264.590 93.715,252.435 93.008,245.364 93.808 C 243.066 94.068,243.122 93.440,245.473 92.588 C 253.492 89.682,255.080 77.098,248.226 70.784 C 247.069 69.719,246.623 69.039,246.259 67.786 C 242.514 54.919,226.226 43.977,213.953 46.085 M220.767 48.883 C 229.241 50.312,236.061 54.705,240.614 61.665 C 241.889 63.616,243.949 67.871,243.957 68.574 C 243.961 68.841,240.098 69.773,239.905 69.552 C 239.865 69.505,239.474 68.754,239.036 67.882 C 233.602 57.065,221.554 50.142,209.324 50.810 C 207.497 50.910,205.698 51.080,205.326 51.187 C 203.864 51.611,204.753 50.757,206.377 50.178 C 211.299 48.423,215.696 48.027,220.767 48.883 M215.154 52.830 C 225.073 54.417,234.616 61.447,237.812 69.524 C 238.707 71.784,237.887 72.297,236.909 70.090 C 230.137 54.819,209.264 48.687,195.703 57.984 C 194.097 59.085,193.899 58.954,195.054 57.553 C 197.933 54.060,208.024 51.689,215.154 52.830 M212.828 57.507 C 214.507 57.784,214.258 57.974,210.728 59.110 C 203.354 61.483,198.920 64.773,195.555 70.368 L 193.930 73.068 192.068 73.322 C 189.700 73.645,189.721 73.678,190.340 70.578 C 191.672 63.910,194.762 60.462,201.279 58.370 C 204.222 57.426,209.811 57.008,212.828 57.507 M230.583 72.164 C 232.262 73.843,232.386 76.544,230.875 78.535 C 228.846 81.208,224.803 80.090,224.298 76.717 C 223.643 72.353,227.777 69.358,230.583 72.164 M245.126 71.690 C 245.429 71.882,245.273 72.012,244.545 72.171 C 240.477 73.065,237.635 81.167,239.600 86.272 C 240.268 88.007,241.514 90.023,241.918 90.023 C 242.071 90.023,242.120 90.145,242.028 90.294 C 240.890 92.136,236.924 86.632,236.557 82.701 C 235.938 76.068,241.254 69.237,245.126 71.690 M248.340 74.784 C 252.822 78.719,250.635 89.422,245.349 89.422 C 244.089 89.422,242.685 88.337,241.864 86.728 C 238.536 80.206,243.690 70.701,248.340 74.784 M203.601 76.107 C 216.685 79.267,214.494 91.385,200.640 92.479 C 196.328 92.820,196.458 92.864,195.400 90.679 C 193.073 85.877,193.238 76.008,195.651 75.586 C 197.175 75.319,201.516 75.604,203.601 76.107 M191.831 77.944 C 191.230 83.162,191.748 89.071,193.039 91.729 C 193.794 93.283,193.856 93.215,191.327 93.619 C 188.683 94.041,187.547 94.620,187.547 95.545 C 187.547 96.644,188.304 97.110,189.413 96.691 C 190.321 96.349,190.364 96.379,193.365 99.445 C 206.548 112.915,226.544 112.699,239.643 98.946 L 242.078 96.390 246.245 96.177 C 248.537 96.060,251.358 95.944,252.513 95.919 L 254.614 95.874 254.957 98.875 C 255.617 104.646,256.266 109.484,256.442 109.941 C 256.563 110.257,256.396 110.451,255.916 110.557 C 253.526 111.083,245.939 112.348,242.011 112.876 C 238.444 113.355,238.549 113.131,238.870 119.569 C 239.172 125.626,239.325 125.187,236.707 125.742 C 232.506 126.634,226.752 125.670,227.091 124.131 C 227.996 120.019,226.800 117.945,223.099 117.209 C 212.736 115.148,208.481 114.343,199.928 112.824 L 196.255 112.171 194.920 112.818 C 193.592 113.461,192.348 115.253,192.348 116.524 C 192.348 117.116,191.646 117.172,190.265 116.690 L 189.292 116.351 189.480 113.914 C 189.583 112.574,189.814 109.756,189.994 107.651 C 190.249 104.651,190.239 103.728,189.947 103.375 C 189.075 102.325,187.847 103.191,187.847 104.856 C 187.847 105.802,187.877 105.803,185.962 104.837 C 175.150 99.388,171.501 91.124,176.480 83.365 C 178.938 79.534,185.871 76.005,191.081 75.933 L 192.065 75.919 191.831 77.944 M228.798 83.711 C 230.268 85.335,228.402 87.970,226.805 86.525 C 226.057 85.848,226.110 84.481,226.913 83.733 C 227.734 82.968,228.122 82.964,228.798 83.711 M236.906 92.308 C 232.480 100.632,220.764 107.742,213.269 106.653 C 211.369 106.377,211.923 106.179,216.082 105.651 C 224.600 104.568,232.831 98.793,236.338 91.439 C 236.733 90.610,236.958 90.414,237.242 90.650 C 237.541 90.898,237.470 91.248,236.906 92.308 M240.587 92.770 C 241.338 93.521,236.588 98.962,233.065 101.386 C 231.017 102.796,231.128 102.556,233.728 99.956 C 235.115 98.569,236.752 96.515,237.675 95.004 C 239.223 92.471,239.826 92.009,240.587 92.770 M266.723 96.953 C 274.089 98.927,275.561 103.639,269.904 107.135 C 268.175 108.204,259.762 110.175,259.270 109.627 C 258.483 108.749,256.720 96.569,257.297 95.992 C 257.611 95.677,264.634 96.393,266.723 96.953 M199.325 114.971 C 201.345 115.348,201.261 114.893,200.320 120.330 C 199.466 125.265,199.628 126.000,201.766 126.917 C 203.890 127.827,203.939 128.291,202.515 133.899 C 202.194 135.167,202.717 135.146,197.402 134.102 C 195.808 133.789,194.245 133.533,193.929 133.533 C 193.612 133.533,193.035 133.195,192.647 132.782 L 191.941 132.030 193.074 125.505 C 193.697 121.916,194.331 118.237,194.483 117.329 C 194.804 115.414,195.898 114.154,196.968 114.465 C 197.315 114.566,198.376 114.794,199.325 114.971 M248.814 117.333 C 249.549 127.673,249.666 129.922,249.664 133.688 C 249.661 140.487,247.011 145.280,242.536 146.581 L 241.860 146.777 241.860 139.603 L 241.860 132.429 242.611 132.087 C 245.153 130.929,245.096 126.644,242.520 125.312 C 241.605 124.839,241.267 122.680,241.262 117.281 L 241.260 115.583 243.436 115.242 C 244.632 115.054,246.084 114.784,246.662 114.642 C 248.562 114.175,248.593 114.214,248.814 117.333 M208.102 116.574 C 210.413 117.003,213.444 117.557,214.839 117.804 C 221.715 119.023,221.361 117.716,218.574 131.583 C 217.279 138.027,217.500 137.823,212.753 136.959 C 211.350 136.704,208.809 136.247,207.107 135.944 C 203.427 135.290,203.684 135.480,204.019 133.657 C 204.998 128.342,204.708 126.797,202.585 126.012 C 200.729 125.327,200.589 124.921,201.163 121.867 C 201.430 120.444,201.735 118.672,201.840 117.929 C 202.113 116.017,202.466 115.443,203.250 115.635 C 203.608 115.723,205.791 116.146,208.102 116.574 M189.947 118.777 C 192.111 119.359,192.117 119.371,191.386 122.005 L 191.046 123.230 188.849 122.720 C 186.151 122.092,185.746 121.778,185.746 120.310 C 185.746 118.288,186.759 117.918,189.947 118.777 M224.756 120.030 C 225.448 120.722,225.476 121.074,225.028 123.496 C 224.753 124.987,224.516 125.430,223.554 126.253 C 222.016 127.569,221.733 129.076,222.662 130.995 C 223.928 133.612,222.455 138.335,220.372 138.335 L 219.381 138.335 219.834 137.059 C 220.083 136.358,220.484 134.366,220.725 132.633 C 220.966 130.900,221.428 128.188,221.753 126.606 C 222.077 125.025,222.432 122.763,222.542 121.580 C 222.764 119.194,223.444 118.718,224.756 120.030 M211.630 123.626 C 209.688 124.445,209.032 128.508,210.578 130.141 C 214.003 133.760,219.513 130.161,217.604 125.552 C 216.950 123.973,213.469 122.851,211.630 123.626 M189.879 125.465 C 190.389 125.657,190.524 125.894,190.413 126.402 C 190.267 127.073,190.172 127.723,189.782 130.707 C 189.257 134.738,190.349 135.393,200.750 137.275 C 203.143 137.708,206.452 138.317,208.102 138.627 C 223.351 141.494,223.810 141.420,225.021 135.913 C 225.421 134.091,225.693 133.413,225.992 133.489 C 228.872 134.219,236.229 134.260,238.060 133.556 C 238.527 133.376,239.034 133.305,239.185 133.399 C 240.058 133.938,238.769 164.632,237.834 165.567 C 237.776 165.625,237.072 165.255,236.269 164.746 C 233.190 162.793,228.803 162.236,222.970 163.057 C 219.052 163.608,219.285 163.715,218.787 161.140 C 217.867 156.377,214.198 153.421,205.451 150.394 C 198.384 147.949,193.947 148.455,189.307 152.235 C 186.575 154.461,186.790 154.391,186.101 153.278 C 183.857 149.649,177.606 145.049,172.318 143.134 C 170.036 142.308,170.039 142.473,172.256 139.717 C 174.360 137.101,176.012 135.580,179.145 133.371 C 182.408 131.070,184.660 128.821,186.439 126.087 C 187.333 124.713,187.706 124.646,189.879 125.465 M213.873 125.206 C 215.306 127.037,213.474 130.650,211.856 129.185 C 211.009 128.419,211.036 126.451,211.905 125.526 C 212.626 124.759,213.422 124.630,213.873 125.206 M216.148 128.758 C 216.013 128.893,215.967 128.369,216.047 127.593 L 216.191 126.182 216.293 127.346 C 216.349 127.987,216.284 128.622,216.148 128.758 M228.787 127.824 C 231.427 128.281,236.430 128.200,238.745 127.663 C 241.673 126.984,243.068 127.636,242.191 129.275 C 241.020 131.463,229.672 132.419,225.473 130.684 C 223.635 129.924,224.401 126.945,226.325 127.367 C 226.700 127.449,227.808 127.655,228.787 127.824 M171.140 145.218 C 176.599 147.096,182.393 151.565,184.518 155.537 C 185.003 156.442,180.930 162.672,178.257 165.115 C 173.566 169.402,168.416 168.386,166.224 162.740 C 164.975 159.526,165.642 151.340,167.423 148.004 C 167.575 147.720,167.991 146.845,168.347 146.062 C 169.096 144.417,168.944 144.463,171.140 145.218 M201.950 151.964 C 209.445 154.074,214.726 157.078,215.835 159.860 C 216.372 161.206,216.827 164.572,217.408 171.493 C 217.643 174.299,217.923 176.898,218.030 177.269 C 218.301 178.211,217.797 178.151,214.645 176.871 C 204.728 172.842,190.562 168.549,181.746 166.901 L 180.596 166.686 181.552 165.488 C 182.078 164.830,183.386 162.962,184.459 161.338 C 189.949 153.030,195.387 150.115,201.950 151.964 M232.653 165.646 C 234.017 166.067,235.040 166.639,236.025 167.531 L 237.440 168.812 237.067 171.503 C 235.509 182.750,232.566 187.406,227.677 186.357 C 223.799 185.526,221.778 182.769,220.546 176.632 C 219.878 173.302,219.395 166.252,219.834 166.225 C 219.983 166.216,221.050 165.958,222.206 165.651 C 225.216 164.853,230.076 164.850,232.653 165.646 M162.072 166.826 C 165.395 167.083,165.600 167.139,166.573 168.041 C 169.269 170.542,173.095 171.087,176.561 169.464 L 178.329 168.637 180.762 169.089 C 183.938 169.679,187.641 170.534,190.998 171.451 C 192.483 171.857,194.496 172.408,195.471 172.675 C 201.489 174.323,216.621 179.773,217.771 180.707 C 218.057 180.940,218.036 181.245,217.672 182.100 C 217.181 183.256,215.158 188.167,213.512 192.198 C 208.682 204.025,206.594 213.423,204.627 232.183 L 204.273 235.559 202.737 235.549 C 201.892 235.544,199.917 235.351,198.350 235.120 C 196.782 234.890,194.486 234.553,193.248 234.372 C 174.636 231.654,156.329 225.639,142.093 217.565 C 139.098 215.866,133.497 212.408,131.658 211.122 L 129.632 209.706 129.641 207.704 C 129.695 195.332,133.046 181.569,138.786 170.139 C 140.362 167.002,139.791 167.232,146.887 166.874 C 153.703 166.529,158.065 166.515,162.072 166.826 M136.534 168.182 C 136.534 168.259,136.302 168.833,136.018 169.457 C 135.734 170.082,135.491 170.621,135.479 170.657 C 135.466 170.692,134.315 170.932,132.919 171.190 C 123.841 172.871,119.287 173.834,115.979 174.771 C 111.649 175.997,109.749 176.551,107.484 177.245 C 106.113 177.665,104.921 177.939,104.836 177.854 C 104.612 177.630,108.102 175.733,110.728 174.652 C 111.965 174.142,113.181 173.614,113.428 173.480 C 114.357 172.974,122.096 170.709,125.431 169.967 C 131.318 168.656,136.534 167.818,136.534 168.182 M162.041 179.303 C 147.199 183.372,143.138 202.934,155.246 212.036 C 168.325 221.867,186.691 212.030,185.282 195.949 C 184.279 184.500,172.875 176.332,162.041 179.303 M172.295 181.944 C 175.923 183.316,180.703 187.284,180.629 188.861 C 180.621 189.046,180.400 188.890,180.138 188.515 C 174.999 181.145,162.058 180.462,154.803 187.178 C 152.288 189.507,152.614 188.502,155.214 185.913 C 159.875 181.271,166.465 179.739,172.295 181.944 M224.984 188.184 C 227.374 189.325,230.234 189.512,231.900 188.636 L 232.892 188.114 235.002 189.331 C 236.162 190.000,237.179 190.548,237.261 190.548 C 237.856 190.548,245.526 196.083,248.462 198.631 C 251.343 201.131,255.062 205.053,255.064 205.592 C 255.064 205.652,252.483 205.659,249.328 205.608 C 225.292 205.216,220.257 215.384,238.410 227.658 C 240.254 228.905,245.064 231.430,246.303 231.801 C 248.580 232.484,241.563 234.530,232.708 235.765 C 228.740 236.318,207.992 236.600,207.499 236.107 C 207.388 235.995,207.446 234.240,207.629 232.206 C 207.811 230.171,208.033 227.359,208.121 225.956 C 208.210 224.554,208.402 222.731,208.548 221.905 C 208.694 221.080,208.903 219.595,209.013 218.605 C 209.906 210.557,213.925 197.212,218.141 188.297 C 218.933 186.621,219.679 184.944,219.797 184.570 C 220.000 183.932,220.102 183.991,221.502 185.562 C 222.538 186.724,223.599 187.523,224.984 188.184 M171.505 187.915 C 181.212 192.911,177.672 207.652,166.764 207.652 C 154.770 207.652,152.380 190.952,163.839 187.210 C 165.469 186.678,169.891 187.085,171.505 187.915 M257.485 188.948 C 257.664 189.127,257.408 189.895,256.797 191.015 C 256.262 191.996,255.273 194.471,254.598 196.515 L 253.373 200.232 251.442 198.442 C 249.170 196.336,244.822 192.907,242.386 191.300 C 240.009 189.733,240.163 189.616,245.761 188.740 C 247.873 188.410,257.111 188.574,257.485 188.948 M263.356 190.360 C 267.777 191.864,270.559 194.328,269.964 196.211 C 269.830 196.637,268.243 202.350,266.871 207.352 C 266.290 209.470,266.232 209.514,264.882 208.852 C 264.258 208.546,262.672 207.937,261.359 207.500 C 259.059 206.734,258.902 206.620,257.154 204.464 L 255.338 202.225 255.629 200.653 C 256.048 198.385,257.036 195.598,258.548 192.423 C 260.071 189.223,260.045 189.234,263.356 190.360 M274.133 196.849 C 274.543 196.849,274.986 197.108,275.172 197.456 C 275.650 198.348,275.278 198.671,274.339 198.181 C 273.887 197.946,273.215 197.752,272.843 197.751 C 272.472 197.750,272.168 197.569,272.168 197.349 C 272.168 196.781,272.518 196.504,273.002 196.690 C 273.231 196.777,273.739 196.849,274.133 196.849 M158.440 201.604 C 158.440 202.162,161.080 204.466,162.474 205.123 C 165.334 206.472,169.226 206.327,171.677 204.780 C 172.954 203.974,173.591 203.205,172.667 203.585 C 170.135 204.627,163.763 203.991,160.690 202.390 C 158.518 201.258,158.440 201.230,158.440 201.604 M253.338 207.845 C 254.723 208.073,254.729 208.299,253.424 210.804 C 252.231 213.091,250.486 218.096,249.996 220.630 C 249.265 224.413,249.083 225.601,248.890 227.850 C 248.756 229.403,248.574 230.148,248.350 230.058 C 248.164 229.984,247.404 229.682,246.662 229.386 C 241.614 227.379,235.113 222.847,232.051 219.202 C 227.548 213.840,229.412 210.493,237.959 208.594 C 241.956 207.706,250.099 207.309,253.338 207.845 M260.863 209.718 C 266.330 211.612,268.570 214.119,267.385 217.015 C 267.230 217.394,266.741 219.055,266.298 220.705 C 263.577 230.850,263.371 231.322,261.401 231.912 C 259.269 232.550,253.599 232.040,251.734 231.042 C 250.029 230.130,252.004 218.889,254.998 212.456 C 256.927 208.313,256.877 208.337,260.863 209.718 M272.877 216.975 C 274.200 218.016,273.491 218.905,271.960 218.125 C 271.344 217.811,270.599 217.554,270.304 217.554 C 269.777 217.554,269.573 216.948,269.967 216.554 C 270.390 216.131,272.123 216.382,272.877 216.975 M254.408 234.209 C 255.616 234.457,257.337 234.659,258.234 234.659 C 259.131 234.659,259.862 234.760,259.858 234.884 C 259.850 235.131,259.736 235.587,258.410 240.660 C 256.120 249.427,256.234 249.127,254.914 249.874 C 253.391 250.735,250.217 250.782,246.962 249.990 L 244.711 249.443 244.777 246.136 C 244.813 244.317,244.973 242.307,245.132 241.669 C 245.291 241.032,245.635 239.632,245.896 238.560 C 246.691 235.298,246.770 235.189,248.995 234.325 C 250.105 233.895,251.283 233.591,251.613 233.651 C 251.943 233.711,253.201 233.962,254.408 234.209 M264.891 236.233 C 265.406 236.644,265.365 237.659,264.834 237.659 C 264.596 237.659,264.328 237.540,264.237 237.393 C 264.147 237.247,263.599 237.038,263.019 236.930 C 262.007 236.740,261.573 236.040,262.314 235.793 C 262.841 235.617,264.467 235.895,264.891 236.233 M243.954 236.384 C 243.950 236.508,243.687 237.588,243.368 238.784 C 243.049 239.983,242.696 242.643,242.581 244.710 C 242.334 249.159,242.541 249.034,238.611 247.121 C 234.124 244.937,227.157 239.919,227.157 238.872 C 227.157 238.749,228.338 238.566,229.782 238.465 C 232.117 238.302,239.337 237.141,242.161 236.476 C 243.590 236.139,243.962 236.120,243.954 236.384 " stroke="none" fill="#582b42" fill-rule="evenodd"></path><path id="path1" d="M0.000 150.038 L 0.000 300.075 200.000 300.075 L 400.000 300.075 400.000 150.038 L 400.000 0.000 200.000 0.000 L 0.000 0.000 0.000 150.038 M222.202 46.652 C 233.326 48.780,243.270 57.516,246.259 67.786 C 246.623 69.039,247.069 69.719,248.226 70.784 C 255.080 77.098,253.492 89.682,245.473 92.588 C 243.122 93.440,243.066 94.068,245.364 93.808 C 252.435 93.008,264.590 93.715,269.071 95.186 C 277.019 97.795,278.095 105.265,271.113 109.363 C 269.332 110.408,263.594 111.826,255.214 113.291 C 253.728 113.550,252.190 113.830,251.794 113.912 L 251.075 114.062 251.258 117.421 C 251.359 119.269,251.653 124.265,251.912 128.525 C 252.274 134.467,252.306 136.702,252.052 138.127 C 251.179 143.013,247.550 147.504,243.317 148.935 C 241.618 149.509,241.667 149.351,241.274 155.589 C 241.086 158.560,240.809 161.935,240.657 163.091 C 240.506 164.246,240.232 166.542,240.050 168.192 C 239.267 175.283,238.042 180.349,236.239 183.946 C 234.850 186.718,234.827 186.447,236.544 187.536 C 237.937 188.420,238.012 188.433,239.066 187.993 C 248.691 183.971,267.507 187.067,271.464 193.323 C 272.066 194.276,272.338 194.449,273.232 194.449 C 275.563 194.449,277.569 195.898,277.569 197.582 C 277.569 198.884,277.742 198.980,279.317 198.560 C 282.633 197.675,288.294 201.007,296.104 208.439 C 300.674 212.787,297.309 214.541,284.171 214.659 C 278.642 214.709,277.651 214.460,275.361 212.450 L 274.233 211.459 273.329 212.556 C 272.816 213.178,272.142 213.662,271.771 213.674 C 271.050 213.696,270.953 213.641,273.692 214.760 C 274.911 215.258,275.769 216.493,275.769 217.751 L 275.769 218.605 278.695 218.605 C 282.346 218.605,283.617 219.185,288.483 223.075 C 300.368 232.576,300.533 234.184,289.722 235.155 C 279.685 236.057,275.926 235.554,273.011 232.920 L 271.877 231.896 271.607 232.602 C 271.091 233.950,270.137 234.510,268.385 234.493 C 266.633 234.476,266.542 234.547,267.207 235.427 C 267.450 235.747,267.652 236.414,267.657 236.909 L 267.666 237.809 270.200 237.713 C 273.977 237.569,276.738 239.150,283.914 245.565 C 287.751 248.994,287.829 249.095,287.717 250.449 C 287.582 252.069,286.383 252.818,283.516 253.071 C 271.006 254.174,268.531 253.975,265.442 251.617 C 264.056 250.559,263.491 250.537,263.470 251.542 C 263.446 252.776,260.776 253.170,258.558 252.268 L 256.849 251.572 254.831 252.260 C 248.053 254.570,231.435 247.831,225.227 240.255 L 224.160 238.953 216.431 238.772 C 187.255 238.089,158.815 230.444,137.376 217.523 C 118.210 205.972,100.225 188.172,100.225 180.754 C 100.225 176.622,106.302 173.066,120.630 168.815 C 129.922 166.058,144.679 164.311,157.168 164.491 C 163.277 164.579,164.127 164.535,163.974 164.141 C 160.206 154.387,166.775 138.710,177.681 131.430 C 180.169 129.769,182.212 127.804,183.690 125.650 L 184.878 123.918 184.259 123.049 C 182.549 120.647,183.469 117.295,186.092 116.371 C 186.841 116.107,186.899 115.948,187.077 113.634 C 187.182 112.283,187.342 110.544,187.433 109.769 L 187.599 108.361 185.397 107.253 C 176.506 102.781,171.943 97.091,171.943 90.473 C 171.943 84.013,176.503 77.752,182.893 75.438 L 184.696 74.785 185.026 72.877 C 187.409 59.089,197.858 48.483,210.969 46.544 C 212.198 46.362,213.541 46.155,213.953 46.085 C 215.148 45.879,219.859 46.203,222.202 46.652 M212.903 48.640 C 208.257 49.449,204.651 50.518,204.651 51.088 C 204.651 51.252,204.952 51.296,205.326 51.187 C 205.698 51.080,207.497 50.910,209.324 50.810 C 221.554 50.142,233.602 57.065,239.036 67.882 C 239.474 68.754,239.865 69.505,239.905 69.552 C 240.098 69.773,243.961 68.841,243.957 68.574 C 243.938 66.935,240.213 60.629,237.540 57.706 C 231.595 51.209,220.854 47.257,212.903 48.640 M205.701 52.965 C 200.772 53.873,196.608 55.667,195.054 57.553 C 193.899 58.954,194.097 59.085,195.703 57.984 C 209.264 48.687,230.137 54.819,236.909 70.090 C 237.887 72.297,238.707 71.784,237.812 69.524 C 233.367 58.293,218.473 50.612,205.701 52.965 M204.280 57.624 C 196.281 58.971,191.833 63.104,190.340 70.578 C 189.721 73.678,189.700 73.645,192.068 73.322 L 193.930 73.068 195.555 70.368 C 198.920 64.773,203.354 61.483,210.728 59.110 C 212.502 58.539,213.953 57.987,213.953 57.882 C 213.953 57.326,207.134 57.144,204.280 57.624 M225.821 72.045 C 223.224 74.326,223.986 79.239,227.057 80.009 C 228.250 80.309,230.059 79.610,230.875 78.535 C 233.985 74.436,229.564 68.759,225.821 72.045 M241.560 71.753 C 237.274 73.450,235.171 81.158,237.549 86.456 C 238.621 88.845,241.434 91.256,242.028 90.294 C 242.120 90.145,242.071 90.023,241.918 90.023 C 241.514 90.023,240.268 88.007,239.600 86.272 C 237.635 81.167,240.477 73.065,244.545 72.171 C 245.273 72.012,245.429 71.882,245.126 71.690 C 244.578 71.343,242.504 71.379,241.560 71.753 M243.906 74.562 C 241.727 76.043,240.358 80.241,240.949 83.630 C 242.252 91.115,248.112 91.542,250.266 84.309 C 252.185 77.865,248.149 71.679,243.906 74.562 M195.651 75.586 C 192.680 76.105,193.595 91.424,196.667 92.602 C 199.190 93.570,206.598 91.613,209.673 89.165 C 217.162 83.205,207.207 73.564,195.651 75.586 M186.719 76.812 C 170.438 80.986,170.011 96.798,185.962 104.837 C 187.877 105.803,187.847 105.802,187.847 104.856 C 187.847 103.191,189.075 102.325,189.947 103.375 C 190.239 103.728,190.249 104.651,189.994 107.651 C 189.814 109.756,189.583 112.574,189.480 113.914 L 189.292 116.351 190.265 116.690 C 191.646 117.172,192.348 117.116,192.348 116.524 C 192.348 115.253,193.592 113.461,194.920 112.818 L 196.255 112.171 199.928 112.824 C 208.481 114.343,212.736 115.148,223.099 117.209 C 226.800 117.945,227.996 120.019,227.091 124.131 C 226.752 125.670,232.506 126.634,236.707 125.742 C 239.325 125.187,239.172 125.626,238.870 119.569 C 238.549 113.131,238.444 113.355,242.011 112.876 C 245.939 112.348,253.526 111.083,255.916 110.557 C 256.396 110.451,256.563 110.257,256.442 109.941 C 256.266 109.484,255.617 104.646,254.957 98.875 L 254.614 95.874 252.513 95.919 C 251.358 95.944,248.537 96.060,246.245 96.177 L 242.078 96.390 239.643 98.946 C 226.544 112.699,206.548 112.915,193.365 99.445 C 190.364 96.379,190.321 96.349,189.413 96.691 C 188.304 97.110,187.547 96.644,187.547 95.545 C 187.547 94.620,188.683 94.041,191.327 93.619 C 193.856 93.215,193.794 93.283,193.039 91.729 C 191.748 89.071,191.230 83.162,191.831 77.944 L 192.065 75.919 191.081 75.933 C 190.540 75.940,188.577 76.336,186.719 76.812 M226.913 83.733 C 226.110 84.481,226.057 85.848,226.805 86.525 C 227.530 87.181,228.146 87.152,228.798 86.432 C 230.287 84.787,228.511 82.244,226.913 83.733 M236.338 91.439 C 232.831 98.793,224.600 104.568,216.082 105.651 C 211.923 106.179,211.369 106.377,213.269 106.653 C 216.728 107.156,223.193 105.096,228.191 101.899 C 232.379 99.219,238.461 91.661,237.242 90.650 C 236.958 90.414,236.733 90.610,236.338 91.439 M237.675 95.004 C 236.752 96.515,235.115 98.569,233.728 99.956 C 231.128 102.556,231.017 102.796,233.065 101.386 C 236.588 98.962,241.338 93.521,240.587 92.770 C 239.826 92.009,239.223 92.471,237.675 95.004 M257.297 95.992 C 256.720 96.569,258.483 108.749,259.270 109.627 C 259.762 110.175,268.175 108.204,269.904 107.135 C 275.561 103.639,274.089 98.927,266.723 96.953 C 264.634 96.393,257.611 95.677,257.297 95.992 M195.549 114.980 C 194.983 115.481,194.682 116.146,194.483 117.329 C 194.331 118.237,193.697 121.916,193.074 125.505 L 191.941 132.030 192.647 132.782 C 193.035 133.195,193.612 133.533,193.929 133.533 C 194.245 133.533,195.808 133.789,197.402 134.102 C 202.717 135.146,202.194 135.167,202.515 133.899 C 203.939 128.291,203.890 127.827,201.766 126.917 C 199.628 126.000,199.466 125.265,200.320 120.330 C 201.261 114.893,201.345 115.348,199.325 114.971 C 198.376 114.794,197.315 114.566,196.968 114.465 C 196.544 114.342,196.079 114.510,195.549 114.980 M246.662 114.642 C 246.084 114.784,244.632 115.054,243.436 115.242 L 241.260 115.583 241.262 117.281 C 241.267 122.680,241.605 124.839,242.520 125.312 C 245.096 126.644,245.153 130.929,242.611 132.087 L 241.860 132.429 241.860 139.603 L 241.860 146.777 242.536 146.581 C 248.595 144.820,250.346 139.222,249.342 124.831 C 248.511 112.933,248.821 114.112,246.662 114.642 M202.316 116.028 C 202.160 116.331,201.946 117.187,201.840 117.929 C 201.735 118.672,201.430 120.444,201.163 121.867 C 200.589 124.921,200.729 125.327,202.585 126.012 C 204.708 126.797,204.998 128.342,204.019 133.657 C 203.684 135.480,203.427 135.290,207.107 135.944 C 208.809 136.247,211.350 136.704,212.753 136.959 C 217.500 137.823,217.279 138.027,218.574 131.583 C 221.361 117.716,221.715 119.023,214.839 117.804 C 210.700 117.070,203.950 115.807,203.250 115.635 C 202.810 115.528,202.508 115.655,202.316 116.028 M186.413 118.697 C 184.503 120.035,185.683 121.983,188.849 122.720 L 191.046 123.230 191.386 122.005 C 192.117 119.371,192.111 119.359,189.947 118.777 C 187.522 118.124,187.240 118.117,186.413 118.697 M222.542 121.580 C 222.432 122.763,222.077 125.025,221.753 126.606 C 221.428 128.188,220.966 130.900,220.725 132.633 C 220.484 134.366,220.083 136.358,219.834 137.059 L 219.381 138.335 220.372 138.335 C 222.455 138.335,223.928 133.612,222.662 130.995 C 221.733 129.076,222.016 127.569,223.554 126.253 C 224.663 125.303,225.356 123.351,225.356 121.175 C 225.356 120.407,224.288 119.430,223.449 119.430 C 222.791 119.430,222.728 119.578,222.542 121.580 M216.416 124.168 C 217.976 125.085,218.478 128.352,217.301 129.932 C 214.037 134.311,207.503 129.574,210.356 124.896 C 211.345 123.273,214.293 122.919,216.416 124.168 M186.439 126.087 C 184.660 128.821,182.408 131.070,179.145 133.371 C 176.012 135.580,174.360 137.101,172.256 139.717 C 170.039 142.473,170.036 142.308,172.318 143.134 C 177.606 145.049,183.857 149.649,186.101 153.278 C 186.790 154.391,186.575 154.461,189.307 152.235 C 193.947 148.455,198.384 147.949,205.451 150.394 C 214.198 153.421,217.867 156.377,218.787 161.140 C 219.285 163.715,219.052 163.608,222.970 163.057 C 228.803 162.236,233.190 162.793,236.269 164.746 C 237.072 165.255,237.776 165.625,237.834 165.567 C 238.769 164.632,240.058 133.938,239.185 133.399 C 239.034 133.305,238.527 133.376,238.060 133.556 C 236.229 134.260,228.872 134.219,225.992 133.489 C 225.693 133.413,225.421 134.091,225.021 135.913 C 223.810 141.420,223.351 141.494,208.102 138.627 C 206.452 138.317,203.143 137.708,200.750 137.275 C 190.349 135.393,189.257 134.738,189.782 130.707 C 190.172 127.723,190.267 127.073,190.413 126.402 C 190.571 125.679,190.168 125.419,188.240 124.999 C 187.353 124.807,187.219 124.888,186.439 126.087 M211.905 125.526 C 211.036 126.451,211.009 128.419,211.856 129.185 C 213.474 130.650,215.306 127.037,213.873 125.206 C 213.422 124.630,212.626 124.759,211.905 125.526 M216.047 127.593 C 215.967 128.369,216.013 128.893,216.148 128.758 C 216.284 128.622,216.349 127.987,216.293 127.346 L 216.191 126.182 216.047 127.593 M224.933 127.928 C 221.557 131.304,233.105 133.062,240.599 130.313 C 244.164 129.006,242.599 126.769,238.745 127.663 C 235.610 128.390,230.431 128.266,226.325 127.367 C 225.868 127.266,225.410 127.451,224.933 127.928 M168.347 146.062 C 167.991 146.845,167.575 147.720,167.423 148.004 C 165.642 151.340,164.975 159.526,166.224 162.740 C 168.416 168.386,173.566 169.402,178.257 165.115 C 180.930 162.672,185.003 156.442,184.518 155.537 C 182.393 151.565,176.599 147.096,171.140 145.218 C 168.944 144.463,169.096 144.417,168.347 146.062 M195.165 151.812 C 191.336 153.191,187.712 156.415,184.459 161.338 C 183.386 162.962,182.078 164.830,181.552 165.488 L 180.596 166.686 181.746 166.901 C 190.562 168.549,204.728 172.842,214.645 176.871 C 217.797 178.151,218.301 178.211,218.030 177.269 C 217.923 176.898,217.643 174.299,217.408 171.493 C 216.827 164.572,216.372 161.206,215.835 159.860 C 214.029 155.330,200.271 149.973,195.165 151.812 M222.206 165.651 C 221.050 165.958,219.983 166.216,219.834 166.225 C 219.395 166.252,219.878 173.302,220.546 176.632 C 221.778 182.769,223.799 185.526,227.677 186.357 C 232.566 187.406,235.509 182.750,237.067 171.503 L 237.440 168.812 236.025 167.531 C 233.328 165.090,227.375 164.280,222.206 165.651 M146.887 166.874 C 139.791 167.232,140.362 167.002,138.786 170.139 C 133.046 181.569,129.695 195.332,129.641 207.704 L 129.632 209.706 131.658 211.122 C 133.497 212.408,139.098 215.866,142.093 217.565 C 156.329 225.639,174.636 231.654,193.248 234.372 C 194.486 234.553,196.782 234.890,198.350 235.120 C 199.917 235.351,201.892 235.544,202.737 235.549 L 204.273 235.559 204.627 232.183 C 206.594 213.423,208.682 204.025,213.512 192.198 C 215.158 188.167,217.181 183.256,217.672 182.100 C 218.036 181.245,218.057 180.940,217.771 180.707 C 216.621 179.773,201.489 174.323,195.471 172.675 C 194.496 172.408,192.483 171.857,190.998 171.451 C 187.641 170.534,183.938 169.679,180.762 169.089 L 178.329 168.637 176.561 169.464 C 173.095 171.087,169.269 170.542,166.573 168.041 C 165.029 166.609,159.090 166.257,146.887 166.874 M131.283 168.786 C 127.010 169.592,123.741 170.309,121.680 170.891 C 118.500 171.790,113.858 173.246,113.428 173.480 C 113.181 173.614,111.965 174.142,110.728 174.652 C 108.102 175.733,104.612 177.630,104.836 177.854 C 104.921 177.939,106.113 177.665,107.484 177.245 C 109.749 176.551,111.649 175.997,115.979 174.771 C 119.287 173.834,123.841 172.871,132.919 171.190 C 134.315 170.932,135.466 170.692,135.479 170.657 C 135.491 170.621,135.734 170.082,136.018 169.457 C 136.302 168.833,136.534 168.259,136.534 168.182 C 136.534 167.917,134.874 168.108,131.283 168.786 M172.543 179.588 C 192.392 186.999,187.854 215.887,166.842 215.889 C 147.061 215.891,140.839 189.307,158.590 180.635 C 162.399 178.774,169.030 178.276,172.543 179.588 M163.022 181.356 C 160.117 182.098,157.527 183.609,155.214 185.913 C 152.614 188.502,152.288 189.507,154.803 187.178 C 162.058 180.462,174.999 181.145,180.138 188.515 C 180.400 188.890,180.621 189.046,180.629 188.861 C 180.671 187.972,177.533 184.755,175.145 183.240 C 172.157 181.343,166.511 180.466,163.022 181.356 M219.797 184.570 C 219.679 184.944,218.933 186.621,218.141 188.297 C 213.925 197.212,209.906 210.557,209.013 218.605 C 208.903 219.595,208.694 221.080,208.548 221.905 C 208.402 222.731,208.210 224.554,208.121 225.956 C 208.033 227.359,207.811 230.171,207.629 232.206 C 207.446 234.240,207.388 235.995,207.499 236.107 C 207.992 236.600,228.740 236.318,232.708 235.765 C 241.563 234.530,248.580 232.484,246.303 231.801 C 245.064 231.430,240.254 228.905,238.410 227.658 C 220.257 215.384,225.292 205.216,249.328 205.608 C 252.483 205.659,255.064 205.652,255.064 205.592 C 255.062 205.053,251.343 201.131,248.462 198.631 C 245.526 196.083,237.856 190.548,237.261 190.548 C 237.179 190.548,236.162 190.000,235.002 189.331 L 232.892 188.114 231.900 188.636 C 229.099 190.108,224.286 188.686,221.502 185.562 C 220.102 183.991,220.000 183.932,219.797 184.570 M163.839 187.210 C 152.380 190.952,154.770 207.652,166.764 207.652 C 177.672 207.652,181.212 192.911,171.505 187.915 C 169.891 187.085,165.469 186.678,163.839 187.210 M245.761 188.740 C 242.933 189.183,240.660 189.720,240.660 189.946 C 240.660 190.065,241.437 190.675,242.386 191.300 C 244.822 192.907,249.170 196.336,251.442 198.442 L 253.373 200.232 254.598 196.515 C 255.273 194.471,256.262 191.996,256.797 191.015 C 257.408 189.895,257.664 189.127,257.485 188.948 C 257.111 188.574,247.873 188.410,245.761 188.740 M258.548 192.423 C 257.036 195.598,256.048 198.385,255.629 200.653 L 255.338 202.225 257.154 204.464 C 258.902 206.620,259.059 206.734,261.359 207.500 C 262.672 207.937,264.258 208.546,264.882 208.852 C 266.232 209.514,266.290 209.470,266.871 207.352 C 268.243 202.350,269.830 196.637,269.964 196.211 C 270.559 194.328,267.777 191.864,263.356 190.360 C 260.045 189.234,260.071 189.223,258.548 192.423 M272.377 196.740 C 271.936 197.182,272.197 197.750,272.843 197.751 C 273.215 197.752,273.887 197.946,274.339 198.181 C 275.278 198.671,275.650 198.348,275.172 197.456 C 274.986 197.108,274.543 196.849,274.133 196.849 C 273.739 196.849,273.231 196.777,273.002 196.690 C 272.774 196.602,272.493 196.625,272.377 196.740 M160.690 202.390 C 163.763 203.991,170.135 204.627,172.667 203.585 C 173.591 203.205,172.954 203.974,171.677 204.780 C 168.146 207.009,162.837 206.281,159.715 203.140 C 157.676 201.089,157.885 200.928,160.690 202.390 M241.710 207.851 C 232.619 208.955,228.281 212.155,230.182 216.354 C 232.065 220.512,239.873 226.687,246.662 229.386 C 247.404 229.682,248.164 229.984,248.350 230.058 C 248.574 230.148,248.756 229.403,248.890 227.850 C 249.083 225.601,249.265 224.413,249.996 220.630 C 250.486 218.096,252.231 213.091,253.424 210.804 C 254.729 208.299,254.723 208.073,253.338 207.845 C 252.176 207.652,243.305 207.657,241.710 207.851 M256.489 209.531 C 252.960 214.916,249.643 229.923,251.734 231.042 C 253.599 232.040,259.269 232.550,261.401 231.912 C 263.371 231.322,263.577 230.850,266.298 220.705 C 266.741 219.055,267.230 217.394,267.385 217.015 C 268.570 214.119,266.330 211.612,260.863 209.718 C 257.841 208.671,257.074 208.638,256.489 209.531 M269.967 216.554 C 269.573 216.948,269.777 217.554,270.304 217.554 C 270.599 217.554,271.344 217.811,271.960 218.125 C 273.042 218.676,273.089 218.677,273.373 218.146 C 273.930 217.106,270.854 215.668,269.967 216.554 M248.995 234.325 C 246.770 235.189,246.691 235.298,245.896 238.560 C 245.635 239.632,245.291 241.032,245.132 241.669 C 244.973 242.307,244.813 244.317,244.777 246.136 L 244.711 249.443 246.962 249.990 C 250.217 250.782,253.391 250.735,254.914 249.874 C 256.234 249.127,256.120 249.427,258.410 240.660 C 259.736 235.587,259.850 235.131,259.858 234.884 C 259.862 234.760,259.131 234.659,258.234 234.659 C 257.337 234.659,255.616 234.457,254.408 234.209 C 253.201 233.962,251.943 233.711,251.613 233.651 C 251.283 233.591,250.105 233.895,248.995 234.325 M262.314 235.793 C 261.573 236.040,262.007 236.740,263.019 236.930 C 263.599 237.038,264.147 237.247,264.237 237.393 C 264.537 237.879,265.266 237.668,265.266 237.096 C 265.266 236.179,263.498 235.398,262.314 235.793 M242.161 236.476 C 239.337 237.141,232.117 238.302,229.782 238.465 C 228.338 238.566,227.157 238.749,227.157 238.872 C 227.157 239.919,234.124 244.937,238.611 247.121 C 242.541 249.034,242.334 249.159,242.581 244.710 C 242.696 242.643,243.049 239.983,243.368 238.784 C 244.164 235.793,244.262 235.980,242.161 236.476 " stroke="none" fill="#ffffff" fill-rule="evenodd"></path></g></svg>