<?xml version="1.0" encoding="utf-8"?>
<!-- Generator: Adobe Illustrator 26.5.0, SVG Export Plug-In . SVG Version: 6.00 Build 0)  -->
<svg version="1.1" id="Camada_1" xmlns="http://www.w3.org/2000/svg" xmlns:xlink="http://www.w3.org/1999/xlink" x="0px" y="0px"
	 viewBox="0 0 939.57 361.53" style="enable-background:new 0 0 939.57 361.53;" xml:space="preserve">
<style type="text/css">
	.st0{fill:#9547ED;}
</style>
<g>
	<path class="st0" d="M107.27,146.45c5.35-13.49,10.71-26.97,17.2-43.33c9.48,14.94,12.44,29.81,19.54,44.52
		c6.46-11.02,6.13-22.41,9.26-32.74c1.07-3.54,1.13-8.94,6.65-7.45c4.58,1.23,2.51,5.95,1.88,9.01
		c-4.11,19.78-8.51,39.49-13.42,62.04c-11.45-16.85-12.81-34.87-22.97-50.22c-10.14,15.43-11.99,33.22-23.09,50.97
		c-5.1-24.23-9.56-45.15-13.87-66.11c-0.52-2.54-0.42-5.69,3-6.09c3.04-0.35,4.55,2.22,5.17,4.86c2.65,11.31,5.16,22.66,7.73,33.99
		C105.32,146.07,106.29,146.26,107.27,146.45z"/>
	<path class="st0" d="M489.37,105.83c6.21,15.37,12.41,30.74,20.11,49.82c7.42-18.42,13.67-33.9,20.97-52.01
		c7.13,13.86,7.55,26.43,10.68,38.17c2,7.52,3.61,15.16,4.96,22.83c0.54,3.05,2.33,7.62-2.88,8.35c-3.75,0.53-4.68-3.24-5.4-6.19
		c-2.65-10.88-5.2-21.78-8.63-36.26c-5.61,14.12-9.89,25.14-14.4,36.06c-1.1,2.66-1.44,6.78-4.89,7.02c-4.55,0.31-4.6-4.46-5.83-7.4
		c-4.47-10.69-8.67-21.49-14.31-35.58c-3.2,13.69-5.55,24.06-8.08,34.37c-0.88,3.58-1.04,8.93-6.49,7.73
		c-4.75-1.04-2.77-5.82-2.13-8.86c4.07-19.28,8.44-38.51,12.7-57.75C486.96,106.03,488.17,105.93,489.37,105.83z"/>
	<path class="st0" d="M419.95,105.75c19.69,0.29,34.94,15.21,34.97,34.2c0.04,20-16.13,34.83-37.41,34.31
		c-19.58-0.47-33.47-15.39-33-35.46C384.97,119.22,399.74,105.45,419.95,105.75z M418.81,114.05
		c-15.29,0.06-25.83,10.75-25.77,26.13c0.06,15.33,10.71,25.87,26.08,25.79c15.4-0.08,25.79-10.63,25.72-26.11
		C444.77,124.41,434.25,113.98,418.81,114.05z"/>
	<path class="st0" d="M760.66,174.27c-20.44-0.2-35.83-15.57-35.2-35.13c0.65-19.85,16.01-33.72,36.96-33.38
		c19.56,0.32,33.91,15.39,33.45,35.14C795.43,160.44,780.62,174.47,760.66,174.27z M760.72,114.02
		c-14.49,0.04-26.37,11.98-26.16,26.31c0.2,14.44,12.13,25.87,26.78,25.66c15.14-0.22,26.13-11.34,25.95-26.28
		C787.12,124.72,776.01,113.98,760.72,114.02z"/>
	<path class="st0" d="M182.28,139.77c0-1.73,0-3.46,0-5.19c0-29.91,4.18-33.47,33.53-28.54c2.51,0.42,5.9,0.29,6.14,3.48
		c0.31,4.27-3.59,4.17-6.47,4.4c-3.87,0.31-7.78,0.39-11.67,0.24c-8.49-0.34-11.37,3.99-11.29,11.99
		c0.08,7.76,3.65,10.44,11.12,10.91c5.95,0.37,16.68-3.3,16.8,3.49c0.14,7.49-10.48,3.92-16.37,4.39
		c-7.15,0.57-11.44,2.68-11.43,10.68c0.01,8.03,4.38,10.1,11.5,10.61c6.06,0.43,17.27-2.62,16.94,3.65
		c-0.43,8.09-11.29,3.97-17.49,4.12c-21.26,0.52-21.27,0.2-21.3-21.24C182.27,148.42,182.28,144.1,182.28,139.77z"/>
	<path class="st0" d="M566.84,140.02c0-2.16,0-4.32,0-6.49c0-27.78,7.35-33.59,34.58-27.38c2.5,0.57,5.54,0.77,5.12,4.33
		c-0.3,2.55-2.81,3.1-4.97,3.28c-3.44,0.28-6.92,0.49-10.36,0.34c-8.39-0.37-14.32,1.28-14.19,11.8
		c0.11,9.88,5.74,10.92,13.54,11.15c5.16,0.15,14.6-2.69,14.56,3.22c-0.06,7.82-9.55,4.18-14.94,4.62
		c-7.11,0.58-12.9,1.25-12.99,10.46c-0.08,8.98,5.18,10.32,12.55,10.92c5.71,0.47,15.79-3.61,15.89,4.63
		c0.07,5.76-10.28,2.46-15.95,3.17c-3.83,0.48-7.78-0.09-11.66,0.07c-7.58,0.31-11.22-3.17-11.11-10.79
		c0.11-7.78,0.02-15.57,0.02-23.35C566.9,140.02,566.87,140.02,566.84,140.02z"/>
	<path class="st0" d="M334.74,105.78c10.73-0.17,19.12,4.63,25.91,12.51c1.62,1.88,3.35,4.56,1.29,6.97
		c-2.2,2.56-4.72,0.9-6.79-0.74c-1.69-1.34-3.12-3.01-4.81-4.33c-11.46-8.93-25.36-7.95-34.95,2.41c-9.1,9.83-9.13,25.27-0.08,35.44
		c8.93,10.03,23.73,10.87,35.02,1.97c0.68-0.53,1.24-1.21,1.93-1.73c2.88-2.18,5.89-7.49,9.47-3.49c3.65,4.08-1.19,7.86-4.07,10.76
		c-9.32,9.39-25.01,12.17-37.31,6.94c-12.05-5.12-21.14-18.79-21.1-31.73C299.31,120.52,314.59,105.47,334.74,105.78z"/>
	<path class="st0" d="M707.8,111.02c-0.78,0.61-1.98,2.35-3.3,2.45c-11.41,0.92-10.51,9.18-10.5,17.03
		c0.02,10.76,0.15,21.52-0.15,32.27c-0.11,3.99,0.76,9.97-5.42,9.74c-5.03-0.19-4.46-5.61-4.53-9.3
		c-0.21-11.18-0.14-22.37-0.13-33.56c0-7.4,0.89-15.23-9.92-16.05c-2.18-0.17-4.3-1.74-3.58-4.27c0.36-1.26,2.35-2.88,3.64-2.91
		c9.87-0.28,19.76-0.3,29.64-0.17C705.72,106.28,707.71,107.36,707.8,111.02z"/>
	<path class="st0" d="M249.9,138.71c0-7.36-0.2-14.73,0.08-22.08c0.14-3.62-0.67-9.05,4.89-8.85c5.07,0.18,4.88,5.47,4.98,9.16
		c0.3,11.25,0.54,22.53,0.13,33.77c-0.35,9.76,1.93,16.18,13.49,15.31c3.15-0.24,8.12-0.57,7.73,4.37
		c-0.37,4.63-5.23,3.47-8.46,3.72c-21.74,1.65-22.87,0.58-22.9-21.11c-0.01-4.76,0-9.53,0-14.29
		C249.86,138.71,249.88,138.71,249.9,138.71z"/>
</g>
</svg>
