<?xml version="1.0" encoding="utf-8"?>
<!-- Generator: Adobe Illustrator 26.5.0, SVG Export Plug-In . SVG Version: 6.00 Build 0)  -->
<svg version="1.1" id="Camada_1" xmlns="http://www.w3.org/2000/svg" xmlns:xlink="http://www.w3.org/1999/xlink" x="0px" y="0px"
	 viewBox="0 0 595.28 841.89" style="enable-background:new 0 0 595.28 841.89;" xml:space="preserve">
<style type="text/css">
	.st0{fill:#491485;}
	.st1{fill:#9547ED;}
</style>
<g>
	<path class="st0" d="M96.38,463.81c2.29-6.61-0.65-14.09,8.39-17.57c8.21-3.16,11.29,3.8,17.7,7.2c-2.38-5.46-4.31-9.99-6.33-14.48
		c-2.46-5.44-4.76-10.97-7.58-16.22c-2.74-5.12-1.2-8.11,3.81-10.09c1.91-0.76,3.78-1.63,5.66-2.47
		c10.27-4.61,10.34-4.64,15.28,5.82c5.1,10.79,9.79,21.79,15.14,32.45c4.74,9.43,3.93,19.64,5.17,29.57c0.3,2.39-0.9,4.48-3.16,5.57
		c-4.26,2.07-8.56,4.03-12.87,6c-2.9,1.32-5.2,0.22-7.14-1.96c-3.42-3.84-6.79-7.73-10.25-11.53c-0.92-1.01-1.93-2.47-3.61-1.42
		c-1.18,0.74-1.16,2.16-0.99,3.37c0.64,4.69,1.27,9.38,2.11,14.03c0.76,4.25-0.59,7.01-4.61,8.91c-16.61,7.82-13.22,7.68-25.06-3.61
		c-5.77-5.5-10.19-11.73-13.42-19c-4.93-11.09-9.96-22.16-15.36-33.03c-2.6-5.25-1.22-8.1,3.93-9.88c0.97-0.34,1.9-0.78,2.84-1.21
		c14.55-6.66,12.83-7.87,20.3,7.86C89.73,449.33,93.03,456.58,96.38,463.81z"/>
	<path class="st0" d="M364.02,463.27c-12.75-1.74-27.82-3.8-42.88-5.84c-4.03-0.55-5.58-2.55-4.99-6.76c3.04-22,5.99-44,8.74-66.04
		c0.74-5.9,3.45-7.58,9.14-6.66c10.95,1.78,21.98,3.04,32.97,4.61c19.98,2.85,20.85,17.84,13.92,32.27
		c-1.36,2.83-2.06,3.76,0.73,6.17c10.89,9.42,4.83,21.04,2.8,31.66C383,460.26,376.28,463.38,364.02,463.27z M354.67,442.07
		c4.89,1.49,6.6-1.48,7.22-6.01c0.68-5.06-2.71-5.7-6.4-6.1c-1.22-0.13-2.47-0.15-3.64-0.47c-4.33-1.2-6.98-0.42-7.67,4.75
		c-0.66,4.88,0.66,7.46,5.81,7.52C351.41,441.76,352.83,441.94,354.67,442.07z M354.63,400.52c-5.48-0.65-6.4,2.22-6.65,5.86
		c-0.37,5.36,3.86,4.93,7.03,5.48c4.54,0.78,5.6-2.53,5.82-5.96C361.14,400.84,356.96,401.09,354.63,400.52z"/>
	<path class="st0" d="M185.85,473.07c-14.53-0.06-21.04-4.95-24.16-17.37c-2.96-11.79-5.83-23.6-8.54-35.44
		c-2.84-12.43,0.45-19.98,11.91-25.28c12.61-5.83,25.79-9.9,40.02-7.53c7.42,1.23,12.5,5.65,14.41,12.8
		c3.83,14.32,7.5,28.7,10.59,43.19c1.82,8.56-2.34,15.5-10.81,20.32C208.46,469.91,196.51,471.93,185.85,473.07z M191.91,449.41
		c7.28,0.1,11.87-2.94,10.94-7.92c-1.73-9.29-3.89-18.52-6.52-27.59c-1.48-5.13-6.09-4.01-9.89-2.93c-3.71,1.05-8.2,1.92-6.95,7.49
		c1.97,8.83,4.2,17.6,6.34,26.39C186.63,448.12,188.71,449.7,191.91,449.41z"/>
	<path class="st0" d="M275.67,377.75c3.09,0,6.2-0.26,9.26,0.05c7.68,0.77,13.11,5.19,14.89,12.72c1.57,6.62,2.63,13.51-1.22,19.78
		c-1.55,2.53-0.48,2.96,1.54,3.81c6.43,2.71,9.09,7.97,9.46,14.66c0.39,6.98,0.73,13.97,1.21,20.95c0.35,5.04-2.12,7.17-6.91,7.26
		c-22.33,0.43-19.03,2.26-19.51-16.75c-0.18-7.24-1.78-8.16-11.33-7.74c-7.22,0.32-8.07,1.21-7.85,8.52
		c0.06,2.05,0.23,4.11,0.48,6.15c1.28,10.73,0.12,12.1-10.94,12.36c-15.43,0.36-14.3,0.97-14.91-13.39
		c-0.78-18.49-2.16-36.96-3.26-55.44c-0.61-10.15,0.52-11.32,10.74-11.73c9.45-0.37,18.9-0.86,28.36-1.3
		C275.67,377.69,275.67,377.72,275.67,377.75z M268.57,399.04c-3.5-0.65-5.55,0.69-4.9,4.96c0.54,3.5-1.32,8.3,5.18,8.24
		c4.84-0.04,7.18-1.99,7.05-6.98C275.77,400.59,273.61,398.49,268.57,399.04z"/>
	<path class="st0" d="M416.96,419.58c0.59-4.78-2.55-4.72-4.67-5.47c-8.12-2.89-8.28-3.11-5.79-11.49c0.29-0.99,0.59-1.97,0.91-2.95
		c2.88-8.94,3.4-9.18,12.19-6.43c12.18,3.8,24.39,7.47,36.55,11.33c6.92,2.2,7.37,3.31,5.21,10.36c-0.3,0.98-0.63,1.96-0.94,2.94
		c-2.96,9.4-2.99,9.54-12.73,7.07c-3.36-0.85-4.97-0.04-5.92,3.2c-2.54,8.69-5.17,17.35-7.89,25.99c-1.07,3.41,0.44,4.82,3.43,5.91
		c9.1,3.32,9.07,3.4,6.31,12.74c-0.35,1.18-0.83,2.34-1.09,3.54c-1.27,5.73-4.38,7.04-9.97,5.19c-12.88-4.27-25.88-8.23-38.93-11.97
		c-5.52-1.58-6.95-4.44-4.74-9.54c0.57-1.32,0.9-2.73,1.32-4.11c2.77-9.11,2.83-9.14,12-6.69c2.11,0.57,4.73,1.97,5.78-1.19
		C411.22,438.23,414.2,428.39,416.96,419.58z"/>
	<path class="st0" d="M524.47,459.34c-2.36-1.12-5.99-2.58-9.34-4.53c-3.74-2.17-5.69-1.35-7.55,2.55
		c-6.47,13.56-13.42,26.89-19.87,40.47c-2.51,5.29-5.49,6.62-10.61,3.55c-3.52-2.11-7.3-3.8-11.04-5.53
		c-4.3-1.99-4.97-4.81-2.86-8.98c6.69-13.22,13.01-26.64,19.88-39.77c2.44-4.68,2.15-7.02-2.96-9.4
		c-13.45-6.26-12.76-4.53-6.03-18.76c2.53-5.34,5.53-6.25,10.71-3.61c15.4,7.85,30.9,15.52,46.49,23c5.12,2.46,6.12,5.45,3.22,10.21
		c-1.6,2.63-2.79,5.5-4.24,8.23C529.34,458.52,527.97,459.67,524.47,459.34z"/>
</g>
<g>
	<path class="st1" d="M88.98,456.41c2.29-6.61-0.65-14.09,8.39-17.57c8.21-3.16,11.29,3.8,17.7,7.2c-2.38-5.46-4.31-9.99-6.33-14.48
		c-2.46-5.44-4.76-10.97-7.58-16.22c-2.74-5.12-1.2-8.11,3.81-10.09c1.91-0.76,3.78-1.63,5.66-2.47
		c10.27-4.61,10.34-4.64,15.28,5.82c5.1,10.79,9.79,21.79,15.14,32.45c4.74,9.43,3.93,19.64,5.17,29.57c0.3,2.39-0.9,4.48-3.16,5.57
		c-4.26,2.07-8.56,4.03-12.87,6c-2.9,1.32-5.2,0.22-7.14-1.96c-3.42-3.84-6.79-7.73-10.25-11.53c-0.92-1.01-1.93-2.47-3.61-1.42
		c-1.18,0.74-1.16,2.16-0.99,3.37c0.64,4.69,1.27,9.38,2.11,14.03c0.76,4.25-0.59,7.01-4.61,8.91c-16.61,7.82-13.22,7.68-25.06-3.61
		c-5.77-5.5-10.19-11.73-13.42-19c-4.93-11.09-9.96-22.16-15.36-33.03c-2.6-5.25-1.22-8.1,3.93-9.88c0.97-0.34,1.9-0.78,2.84-1.21
		c14.55-6.66,12.83-7.87,20.3,7.86C82.33,441.92,85.63,449.18,88.98,456.41z"/>
	<path class="st1" d="M356.62,455.86c-12.75-1.74-27.82-3.8-42.88-5.84c-4.03-0.55-5.58-2.55-4.99-6.76c3.04-22,5.99-44,8.74-66.04
		c0.74-5.9,3.45-7.58,9.14-6.66c10.95,1.78,21.98,3.04,32.97,4.61c19.98,2.85,20.85,17.84,13.92,32.27
		c-1.36,2.83-2.06,3.76,0.73,6.17c10.89,9.42,4.83,21.04,2.8,31.66C375.6,452.85,368.88,455.97,356.62,455.86z M347.27,434.66
		c4.89,1.49,6.6-1.48,7.22-6.01c0.68-5.06-2.71-5.7-6.4-6.1c-1.22-0.13-2.47-0.15-3.64-0.47c-4.33-1.2-6.98-0.42-7.68,4.75
		c-0.66,4.88,0.66,7.46,5.81,7.52C344,434.36,345.43,434.53,347.27,434.66z M347.22,393.12c-5.48-0.65-6.4,2.22-6.65,5.86
		c-0.37,5.36,3.86,4.93,7.03,5.48c4.54,0.78,5.6-2.53,5.82-5.96C353.74,393.43,349.56,393.69,347.22,393.12z"/>
	<path class="st1" d="M178.45,465.66c-14.53-0.06-21.04-4.95-24.16-17.37c-2.96-11.79-5.83-23.6-8.54-35.44
		c-2.84-12.43,0.45-19.98,11.91-25.28c12.61-5.83,25.79-9.9,40.02-7.53c7.42,1.23,12.5,5.65,14.41,12.8
		c3.83,14.32,7.5,28.7,10.59,43.19c1.82,8.56-2.34,15.5-10.81,20.32C201.06,462.5,189.11,464.52,178.45,465.66z M184.51,442.01
		c7.28,0.1,11.87-2.94,10.94-7.92c-1.73-9.29-3.89-18.52-6.52-27.59c-1.48-5.13-6.09-4.01-9.89-2.93c-3.71,1.05-8.2,1.92-6.95,7.49
		c1.97,8.83,4.2,17.6,6.34,26.39C179.23,440.71,181.31,442.3,184.51,442.01z"/>
	<path class="st1" d="M268.27,370.34c3.09,0,6.2-0.26,9.26,0.05c7.68,0.77,13.11,5.19,14.89,12.72c1.57,6.62,2.63,13.51-1.22,19.78
		c-1.55,2.53-0.48,2.96,1.54,3.81c6.43,2.71,9.09,7.97,9.46,14.66c0.39,6.98,0.73,13.97,1.21,20.95c0.35,5.04-2.12,7.17-6.91,7.26
		c-22.33,0.43-19.03,2.26-19.51-16.75c-0.18-7.24-1.78-8.16-11.33-7.74c-7.22,0.32-8.07,1.21-7.85,8.52
		c0.06,2.05,0.23,4.11,0.48,6.15c1.28,10.73,0.12,12.1-10.94,12.36c-15.43,0.36-14.3,0.97-14.91-13.39
		c-0.78-18.49-2.16-36.96-3.26-55.44c-0.61-10.15,0.52-11.32,10.74-11.73c9.45-0.37,18.9-0.86,28.36-1.3
		C268.27,370.28,268.27,370.31,268.27,370.34z M261.16,391.63c-3.5-0.65-5.55,0.69-4.9,4.96c0.54,3.5-1.32,8.3,5.18,8.24
		c4.84-0.04,7.18-1.99,7.05-6.98C268.37,393.18,266.21,391.08,261.16,391.63z"/>
	<path class="st1" d="M409.55,412.17c0.59-4.78-2.55-4.72-4.67-5.47c-8.12-2.89-8.28-3.11-5.79-11.49c0.29-0.99,0.59-1.97,0.91-2.95
		c2.88-8.94,3.4-9.18,12.19-6.43c12.18,3.8,24.39,7.47,36.55,11.33c6.92,2.2,7.37,3.31,5.21,10.36c-0.3,0.98-0.63,1.96-0.94,2.94
		c-2.96,9.4-2.99,9.54-12.73,7.07c-3.36-0.85-4.97-0.04-5.92,3.2c-2.54,8.69-5.17,17.35-7.89,25.99c-1.07,3.41,0.44,4.82,3.43,5.91
		c9.1,3.32,9.07,3.4,6.31,12.74c-0.35,1.18-0.83,2.34-1.09,3.54c-1.27,5.73-4.38,7.04-9.97,5.19c-12.88-4.27-25.88-8.23-38.93-11.97
		c-5.52-1.58-6.95-4.44-4.74-9.54c0.57-1.32,0.9-2.73,1.32-4.11c2.77-9.11,2.83-9.14,12-6.69c2.11,0.57,4.73,1.97,5.78-1.19
		C403.82,430.82,406.79,420.98,409.55,412.17z"/>
	<path class="st1" d="M517.07,451.93c-2.36-1.12-5.99-2.58-9.34-4.53c-3.74-2.17-5.69-1.35-7.55,2.55
		c-6.47,13.56-13.42,26.89-19.87,40.47c-2.51,5.29-5.49,6.62-10.61,3.55c-3.52-2.11-7.3-3.8-11.04-5.53
		c-4.3-1.99-4.97-4.81-2.86-8.98c6.69-13.22,13.01-26.64,19.88-39.77c2.44-4.68,2.15-7.02-2.96-9.4
		c-13.45-6.26-12.76-4.53-6.03-18.76c2.53-5.34,5.53-6.25,10.71-3.61c15.4,7.85,30.9,15.52,46.49,23c5.12,2.46,6.12,5.45,3.22,10.21
		c-1.6,2.63-2.79,5.5-4.24,8.23C521.94,451.11,520.57,452.26,517.07,451.93z"/>
</g>
</svg>
